<svg width="48" height="48" viewBox="0 0 48 48" fill="none" xmlns="http://www.w3.org/2000/svg">
<g clip-path="url(#clip0)">
<path d="M48.0024 21.9648C47.9961 21.5107 47.927 21.4517 47.4854 21.3624C46.3901 21.1406 45.2918 20.9338 44.1945 20.7206C43.7827 20.5766 43.1136 20.713 42.9821 20.1859C42.8011 19.5422 42.6552 18.8866 42.4349 18.2568C42.2597 17.7581 42.3768 17.4336 42.78 17.101C43.6017 16.4232 44.412 15.7315 45.18 14.9933C46.0819 14.1264 46.08 14.3928 45.5597 13.3954C44.9789 12.3206 44.3841 11.244 43.7289 10.2115C43.4813 9.86928 43.3958 9.82752 43.0128 9.96C42.0256 10.296 41.04 10.6382 40.056 10.9867C37.7395 11.9338 39.3533 11.2147 36.7579 9.44112C36.5179 9.28272 36.5659 9.17424 36.6139 9.03072C37.1011 7.63872 37.632 6.25776 38.0909 4.85472C38.2152 4.55616 37.9387 4.36272 37.7203 4.22208C36.5645 3.56496 35.412 2.90064 34.2465 2.2608C33.7973 2.01408 33.7507 2.0208 33.407 2.4048C32.4422 3.46944 31.5249 4.57968 30.5688 5.65104C30.5328 5.68322 30.4898 5.70664 30.4433 5.71946C30.3967 5.73229 30.3479 5.73417 30.3005 5.72496C29.5037 5.52384 28.7126 5.29968 27.9144 5.10384C27.6264 5.03328 27.4891 4.884 27.4373 4.59744C27.1891 3.27504 26.9573 1.94544 26.6779 0.631196C26.6342 0.262076 26.483 -4.4778e-06 26.0673 -0.0211245C24.7166 0.00527552 23.3438 -0.0729645 22.0037 0.00863552C21.4137 0.0422355 21.4277 0.137276 21.3225 0.654236C21.0878 1.788 20.8905 2.92992 20.6755 4.06848C20.5589 4.41696 20.6385 4.97808 20.1917 5.07648C19.7174 5.13936 17.6045 5.9376 17.4288 5.63136C16.9488 5.2368 14.362 1.6032 13.966 2.16912C12.7036 2.80304 11.4736 3.49408 10.2758 4.24224C9.85629 4.50144 9.82365 4.60704 9.98781 5.06976C10.4496 6.3856 10.9193 7.6976 11.3971 9.00576C11.472 9.21264 11.4388 9.32592 11.1931 9.51168C10.5577 10.0001 9.9924 10.5734 9.51309 11.2157C9.34509 11.4365 9.25053 11.4725 9.05997 11.4038C7.71053 10.9162 6.35869 10.4349 5.00445 9.96C4.62332 9.82656 4.5038 9.84816 4.30508 10.1909C3.58508 11.4322 2.89148 12.6869 2.18732 13.9387C2.07452 14.1384 2.1062 14.3117 2.27564 14.4629C2.97596 15.0869 3.6734 15.7162 4.37756 16.3373C6.67197 18.277 5.45325 17.0203 5.13596 19.944C5.08797 20.365 4.9046 20.5138 4.57436 20.5747C3.26828 20.821 1.95788 21.0576 0.657563 21.3278C0.292283 21.3811 -3.74131e-05 21.5112 -0.0163574 21.9461V25.92C-0.00723742 26.4374 0.233243 26.64 0.709403 26.712C2.0102 26.9453 3.30764 27.1987 4.60844 27.432C4.83932 27.4733 4.98188 27.576 5.04044 27.7978C5.10572 28.2893 5.93565 30.4378 5.57325 30.6101C4.4726 31.5854 3.347 32.5301 2.28236 33.5467C2.10332 33.709 2.07884 33.8798 2.1902 34.0901C2.8094 35.341 3.51596 36.5448 4.2422 37.7381C4.50284 38.1643 4.60268 38.1955 5.06684 38.0333C6.38301 37.5734 7.69597 37.1042 9.00573 36.6254C9.23757 36.541 9.34653 36.6 9.55341 36.8654C10.0227 37.468 10.5695 38.0059 11.1796 38.4653C11.4456 38.6654 11.471 38.7917 11.386 39.025C10.906 40.343 10.4356 41.6643 9.97485 42.9888C9.83085 43.4016 9.85677 43.5221 10.234 43.741C11.4398 44.4413 12.6614 45.1152 13.8734 45.805C14.1292 45.949 14.3289 45.9077 14.5176 45.6922C15.2977 44.8006 16.08 43.9114 16.8643 43.0243C17.1494 42.7733 17.3366 42.2266 17.7974 42.3437C18.6043 42.5482 19.4131 42.7435 20.2214 42.9422C20.4734 43.0042 20.531 43.2082 20.5709 43.4222C20.8368 44.7998 21.0475 46.1894 21.3753 47.5541C21.4632 47.9102 21.5318 47.9712 21.8952 47.9861C22.499 48.012 23.1033 48.0288 23.7077 48.0302C24.4915 48.0302 25.2763 48.0302 26.0597 48.001C26.4917 47.9856 26.5608 47.917 26.6486 47.4941C26.9323 46.0949 27.2016 44.6928 27.4771 43.2922C27.5155 43.0877 27.6374 42.9821 27.8285 42.9317C28.6637 42.7109 29.4974 42.4838 30.3355 42.2731C30.4085 42.2549 30.5352 42.3168 30.5913 42.3811C31.5691 43.4899 32.484 44.6554 33.516 45.7147C33.6888 45.9034 33.8745 45.9408 34.104 45.8194C35.2286 45.2693 36.3043 44.6304 37.3843 43.9978C37.763 43.739 38.3265 43.5461 38.0496 43.0022C37.6973 41.9822 37.3353 40.9651 36.9749 39.948C36.1205 37.9104 36.8352 39.2112 38.556 36.7392C38.7206 36.5026 38.8397 36.564 38.9923 36.6187C40.3209 37.0934 41.6481 37.5706 42.9792 38.0376C43.3958 38.184 43.5163 38.1614 43.7342 37.7866C46.2504 32.9419 46.7822 34.5605 43.907 31.8965C41.6457 29.8574 42.3144 30.8976 42.9168 27.9984C43.0128 27.6096 43.2437 27.4541 43.6272 27.3864C44.9126 27.1594 46.1933 26.9064 47.4734 26.6506C47.9318 26.5594 47.9971 26.5042 48.0014 26.0338C48.0203 24.6779 48.0206 23.3216 48.0024 21.9648Z" fill="black" fill-opacity="0.75"/>
<path d="M19 26H13V33H19V26Z" fill="white"/>
<path d="M27 21H21V33H27V21Z" fill="white"/>
<path d="M35 15H29V33H35V15Z" fill="white"/>
</g>
<defs>
<clipPath id="clip0">
<rect width="48" height="48" fill="white"/>
</clipPath>
</defs>
</svg>
